# xmcd CD database file
#
# Track frame offsets:
#	183
#	14593
#	25275
#	37423
#	49515
#	62233
#	74353
#	84995
#	97408
#	109208
#	119620
#	132140
#	143593
#	154458
#	168520
#	181320
#	195435
#
# Disc length: 2786 seconds
#
# Revision: 5
# Processed by: cddbd v1.5.2PL0 Copyright (c) Steve Scherf et al.
# Submitted via: CDex 1.77
#
DISCID=fa0ae011
DTITLE=Ray Charles - C.C. Rider
DYEAR=1996
DGENRE=Blues
TTITLE0=Blues Is My Middle Name
TTITLE1=Hey Now
TTITLE2=C.C. Rider
TTITLE3=Can't You See Darling
TTITLE4=Rocking Chair Blues
TTITLE5=I Found My Baby There
TTITLE6=The Ego Song
TTITLE7=I Will Not Let You Go
TTITLE8=If I Give You My Love
TTITLE9=Goin' Down Slow
TTITLE10=I'm Glad For Your Sake
TTITLE11=Let's Have A Ball
TTITLE12=I Wonder Who's Kissing Her Now
TTITLE13=This Love Of Mine
TTITLE14=The Snow Is Falling
TTITLE15=Baby Let Me Hold Your Hand
TTITLE16=I'm Going To Drown Myself
EXTD=YEAR: 1996
EXTT0=
EXTT1=
EXTT2=
EXTT3=
EXTT4=
EXTT5=
EXTT6=
EXTT7=
EXTT8=
EXTT9=
EXTT10=
EXTT11=
EXTT12=
EXTT13=
EXTT14=
EXTT15=
EXTT16=
PLAYORDER=
